<svg width="80" height="47" viewBox="0 0 80 47" fill="none" xmlns="http://www.w3.org/2000/svg">
<rect x="1" y="1" width="78" height="45" rx="22.5" stroke="#19ECB7" stroke-width="2"/>
<path d="M54.0713 15.293C53.5184 14.9867 53.1427 14.423 53.1426 13.7695C53.1426 12.792 53.9739 12 55 12C56.0261 12 56.8574 12.792 56.8574 13.7695L56.8525 13.8906C56.8093 14.4923 56.4472 15.0058 55.9287 15.293V17.3076H60.5713C63.1243 17.3076 65.2137 19.2983 65.2139 21.7305V22.6152H68V28.8076H65.2139V29.6924L65.208 29.9189C65.083 32.247 63.0446 34.1152 60.5713 34.1152H57.5283C57.2068 34.6421 56.6148 35 55.9287 35L55.7383 34.9912C54.8017 34.9005 54.0713 34.1468 54.0713 33.2305C54.0715 32.2531 54.9027 31.4619 55.9287 31.4619C56.5292 31.462 57.0575 31.7356 57.3955 32.1572L57.5283 32.3457H60.5713C62.1206 32.3457 63.3574 31.1683 63.3574 29.6924V21.7305C63.3573 20.2546 62.1205 19.0771 60.5713 19.0771H49.4287V17.3076H54.0713V15.293ZM49.4287 19.0771L49.1416 19.0908C47.7295 19.2258 46.6427 20.347 46.6426 21.7305V31.4619H48.5V27.9229H61.5V30.5771H59.6426V29.6924H50.3574V31.4619H52.2139V33.2305H44.7861V28.8076H42V22.6152H44.7861V21.7305C44.7863 19.3744 46.7469 17.4326 49.1904 17.3135L49.4287 17.3076V19.0771ZM43.8574 24.3848V27.0381H44.7861V24.3848H43.8574ZM65.2139 24.3848V27.0381H66.1426V24.3848H65.2139ZM51.4287 23.5L51.4209 23.4336C51.407 23.3721 51.3762 23.3262 51.3516 23.3027C51.3361 23.2881 51.3213 23.2801 51.3096 23.2754L51.2861 23.2695C51.2789 23.2695 51.2507 23.2734 51.2197 23.3027C51.187 23.334 51.1426 23.4047 51.1426 23.5L51.1504 23.5664C51.1643 23.6279 51.1951 23.6738 51.2197 23.6973C51.2507 23.7266 51.2789 23.7305 51.2861 23.7305V25.2695L51.0957 25.2598C50.159 25.1692 49.4287 24.4164 49.4287 23.5C49.4287 22.5225 50.2601 21.7305 51.2861 21.7305C52.312 21.7307 53.1426 22.5226 53.1426 23.5L53.1328 23.6807C53.0379 24.5731 52.248 25.2693 51.2861 25.2695V23.7305C51.294 23.7303 51.3212 23.726 51.3516 23.6973C51.3762 23.6738 51.407 23.6279 51.4209 23.5664L51.4287 23.5ZM58.8574 23.5L58.8496 23.4336C58.8357 23.3721 58.8049 23.3262 58.7803 23.3027C58.7648 23.2881 58.75 23.2801 58.7383 23.2754L58.7139 23.2695C58.706 23.2697 58.6788 23.274 58.6484 23.3027C58.6157 23.334 58.5713 23.4047 58.5713 23.5L58.5791 23.5664C58.593 23.6279 58.6238 23.6738 58.6484 23.6973C58.6788 23.726 58.706 23.7303 58.7139 23.7305V25.2695L58.5244 25.2598C57.5876 25.1692 56.8574 24.4164 56.8574 23.5C56.8574 22.5226 57.688 21.7307 58.7139 21.7305C59.7399 21.7305 60.5713 22.5225 60.5713 23.5L60.5615 23.6807C60.4666 24.5732 59.6759 25.2695 58.7139 25.2695V23.7305C58.7211 23.7305 58.7493 23.7266 58.7803 23.6973C58.8049 23.6738 58.8357 23.6279 58.8496 23.5664L58.8574 23.5Z" fill="#19ECB7"/>
</svg>
