<svg width="103" height="44" viewBox="0 0 103 44" fill="none" xmlns="http://www.w3.org/2000/svg">
<path d="M17.5744 25.1447C17.5502 22.2076 15.9927 19.3364 14.8525 17.2362C14.5999 16.7694 14.3627 16.3345 14.1638 15.9346L13.4103 14.4287L12.335 15.7249C12.1724 15.9226 12.0209 16.1598 11.8836 16.4179C10.5314 13.7642 9.83835 11.7113 9.82957 11.6849L9.26609 10L8.01062 11.2555C7.68329 11.5828 0 19.3331 0 25.2128C0 30.0578 3.94215 34 8.78718 34C13.6322 34 17.5744 30.0578 17.5744 25.2128V25.2095C17.5744 25.1919 17.5744 25.1766 17.5744 25.159L17.581 25.1502L17.5744 25.1447ZM5.49199 28.508C5.49199 25.2128 8.78718 21.9176 8.78718 21.9176C9.41767 25.2776 12.2241 26.2607 12.0824 28.508C11.9681 30.3248 10.6072 31.8032 8.78718 31.8032C6.96714 31.8032 5.49199 30.3281 5.49199 28.508Z" fill="#19ECB7"/>
<path d="M21.9368 31L28.3928 13.6H31.2248L37.7768 31H35.1368L33.7688 27.232H25.7768L24.4328 31H21.9368ZM29.7368 16.072L26.5208 25.144H33.0008L29.7368 16.072ZM41.2126 13.6V31H39.0286V13.6H41.2126ZM46.381 13.6V31H44.197V13.6H46.381ZM54.9168 31V13.6H61.1808C65.2608 13.6 67.3008 15.032 67.3008 17.896C67.3008 18.728 67.1328 19.496 66.7968 20.2C66.4608 20.888 65.9888 21.4 65.3808 21.736C67.1408 22.472 68.0208 23.848 68.0208 25.864C68.0208 27.608 67.4448 28.904 66.2928 29.752C65.1568 30.584 63.6528 31 61.7808 31H54.9168ZM57.3648 22.984V28.936H61.8048C64.2688 28.936 65.5008 27.92 65.5008 25.888C65.5008 24.88 65.1888 24.144 64.5648 23.68C63.9408 23.216 62.9728 22.984 61.6608 22.984H57.3648ZM57.3648 15.664V21.04H61.5648C63.7408 21.04 64.8288 20.104 64.8288 18.232C64.8288 17.368 64.5408 16.728 63.9648 16.312C63.3888 15.88 62.5888 15.664 61.5648 15.664H57.3648ZM71.9481 24.592C71.9481 26.208 72.3161 27.416 73.0521 28.216C73.7881 29 74.7081 29.392 75.8121 29.392C76.9001 29.392 77.8121 28.984 78.5481 28.168C79.3001 27.352 79.6761 26.16 79.6761 24.592C79.6761 22.976 79.3081 21.776 78.5721 20.992C77.8361 20.192 76.9161 19.792 75.8121 19.792C74.7081 19.792 73.7881 20.184 73.0521 20.968C72.3161 21.736 71.9481 22.944 71.9481 24.592ZM71.4681 19.6C72.7001 18.448 74.1481 17.872 75.8121 17.872C77.4761 17.872 78.9241 18.448 80.1561 19.6C81.3881 20.752 82.0041 22.416 82.0041 24.592C82.0041 26.768 81.3881 28.432 80.1561 29.584C78.9241 30.736 77.4761 31.312 75.8121 31.312C74.1481 31.312 72.7001 30.736 71.4681 29.584C70.2361 28.432 69.6201 26.768 69.6201 24.592C69.6201 22.416 70.2361 20.752 71.4681 19.6ZM84.6432 18.088V14.848H86.8272V18.088H89.2752V19.84H86.8272V27.496C86.8272 28.2 86.8992 28.656 87.0432 28.864C87.2032 29.072 87.5792 29.176 88.1712 29.176H89.2752V31H87.6912C86.4432 31 85.6192 30.792 85.2192 30.376C84.8352 29.96 84.6432 29.088 84.6432 27.76V19.84H82.6032V18.088H84.6432ZM101.016 21.856H98.7359C98.3999 20.432 97.3839 19.72 95.6879 19.72C94.9679 19.72 94.3359 19.856 93.7919 20.128C93.2479 20.4 92.9759 20.808 92.9759 21.352C92.9759 21.848 93.1359 22.232 93.4559 22.504C93.7919 22.76 94.2879 22.96 94.9439 23.104L96.7679 23.464C98.1279 23.72 99.1999 24.144 99.9839 24.736C100.784 25.312 101.184 26.168 101.184 27.304C101.184 28.552 100.688 29.536 99.6959 30.256C98.7039 30.96 97.4479 31.312 95.9279 31.312C94.3279 31.312 93.0399 30.872 92.0639 29.992C91.0879 29.112 90.5279 28.056 90.3839 26.824H92.6879C93.0719 28.584 94.1679 29.464 95.9759 29.464C96.8399 29.464 97.5519 29.296 98.1119 28.96C98.6879 28.608 98.9759 28.136 98.9759 27.544C98.9759 26.936 98.7439 26.472 98.2799 26.152C97.8159 25.832 97.1759 25.584 96.3599 25.408L94.4399 25.024C93.3519 24.784 92.4639 24.4 91.7759 23.872C91.1039 23.344 90.7679 22.536 90.7679 21.448C90.7679 20.344 91.2559 19.472 92.2319 18.832C93.2239 18.176 94.4559 17.848 95.9279 17.848C97.3199 17.848 98.4639 18.208 99.3599 18.928C100.256 19.632 100.808 20.608 101.016 21.856Z" fill="white"/>
</svg>
